<?xml version="1.0" encoding="utf-8"?>
<!-- Generator: Adobe Illustrator 25.4.1, SVG Export Plug-In . SVG Version: 6.00 Build 0)  -->
<svg version="1.1" id="Camada_1" xmlns="http://www.w3.org/2000/svg" xmlns:xlink="http://www.w3.org/1999/xlink" x="0px" y="0px"
	 viewBox="0 0 394 80" style="enable-background:new 0 0 394 80;" xml:space="preserve">
<style type="text/css">
	.st0{fill:#1D1D1B;}
</style>
<g>
	<path class="st0" d="M123.4,1.7c0,2.6,0.1,5.1,0,7.7c-0.1,2.5-2.3,4.7-4.9,4.7c-2.2,0-4.4,0-6.5,0c-0.3,0-0.3-0.1-0.3-0.3
		c0-2.4,0-4.7,0-7.1c0-2.6,1.9-4.6,4.4-5c0,0,0.1,0,0.1-0.1c0,0,0.1,0,0.1,0c0.1,0.1,0.3,0,0.5,0c2.1,0,4.2,0,6.3,0
		C123.1,1.7,123.3,1.7,123.4,1.7z"/>
	<path class="st0" d="M107.1,76.2c-5.5,0.5-10.9,0.6-16.3,0.5c-1.1,0-2-0.4-2.8-1.1c-3.4-3.2-6.9-6.3-10.3-9.5
		c-3.3-3-6.6-6.1-9.9-9.1c-0.2-0.1-0.3-0.3-0.3-0.5c0-4.2,0-8.4,0-12.5c0.1-3.9,3.2-7.5,7.1-8.2c1.1-0.2,2.1-0.1,3.2-0.2
		c5.3-0.1,9-4.5,9.6-8.6c0.4-2.6,0.1-5.2-1.4-7.4c-2.1-3.2-5-4.9-8.9-4.9c-5.1-0.1-10.2,0-15.3-0.1c-0.4,0-0.5,0.1-0.5,0.5
		c0,18.1,0,36.2,0,54.4c0,3.8-2.6,6.8-6.4,7.2c-0.9,0.1-1.8,0-2.7,0c-1.2,0-2.4,0-3.7,0c-0.3,0-0.4-0.1-0.3-0.3c0,0,0-0.1,0-0.1
		c0-22.4,0-44.7,0-67.1c0-3.6,2.4-6.5,5.9-7.2c0.4-0.1,0.8-0.1,1.2-0.1c7.3,0,14.7-0.1,22,0c6.3,0.1,11.8,2.3,16.4,6.7
		c3.8,3.6,5.9,8,6.6,13.2c1,7.4-1.1,13.8-6.2,19.3c-3.4,3.7-7.7,5.8-12.6,6.8c-0.6,0.1-1.2,0.2-1.8,0.3c-0.6,0.1-1,0.2-1.2,0.8
		c-0.2,0.6,0.1,1,0.5,1.3c3.8,3.5,7.5,7,11.2,10.5c5.4,5.1,10.9,10.1,16.3,15.2C106.8,76,106.9,76,107.1,76.2z"/>
	<path class="st0" d="M273.6,52.5c-5.1,0-10.2,0-15.3,0c-0.4,0-0.5-0.1-0.5-0.4c-0.4-1.7-0.6-3.4-0.6-5.1c0.1-2.7,2.4-5,5.1-5.2
		c0.4,0,0.7,0,1.1,0c7.5,0,15,0,22.5,0c0.6,0,0.6,0,0.3-0.5c-2.6-6.1-7.2-9.7-13.8-10.7c-5.3-0.8-10.1,0.7-14.1,4.3
		c-4.1,3.8-6.1,8.5-5.7,14.1c0.1,1.1,0.3,2.1,0.5,3.1c1.1,5.1,4.1,8.8,8.6,11.3c6.6,3.6,15.1,2.4,20.5-2.8c0.4-0.4,0.9-0.8,1.3-1.3
		c0.1-0.1,0.2-0.1,0.4,0c1,0.7,2.1,1.4,3.1,2.2c3.1,2.4,3.2,7.1,0.2,9.7c-3.1,2.6-6.6,4.1-10.5,5c-6.9,1.5-13.6,0.8-19.9-2.4
		c-8.1-4.2-13.2-10.9-15.1-19.9c-1.3-6.5-0.5-12.8,2.4-18.8c2.7-5.6,6.9-9.8,12.5-12.7c4.2-2.2,8.7-3.2,13.4-3.2
		c7.7,0,14.5,2.6,20.1,7.9c4.1,3.8,6.7,8.5,7.9,14c1.1,5-2.3,10.2-7.4,11.4c-0.8,0.2-1.7,0.3-2.5,0.3
		C283.3,52.5,278.5,52.5,273.6,52.5z"/>
	<path class="st0" d="M127.9,19.2c2.9,0,5.8,0,8.6,0c1.6,0,3.2,0.4,4.6,1.2c1.2,0.7,2.2,1.6,2.9,2.7c11.1,16,22.3,31.9,33.4,47.9
		c1.4,2,2.8,4,4.2,6c0.1,0.1,0.2,0.2,0.2,0.3c-0.1,0.1-0.2,0.1-0.3,0.1c-4.2,0-8.5,0-12.7,0c-0.3,0-0.4-0.1-0.6-0.3
		c-4.4-6.3-8.8-12.5-13.1-18.8c-0.1-0.1-0.2-0.2-0.3-0.4c-0.6,0.8-1.2,1.7-1.7,2.5c-3.9,5.6-7.8,11.2-11.7,16.8
		c-0.1,0.2-0.2,0.3-0.5,0.3c-4.3,0-8.7,0-13,0c0,0-0.1,0-0.1,0c0-0.2,0.1-0.2,0.2-0.4c6.6-9.5,13.2-18.9,19.9-28.4
		c0.2-0.3,0.2-0.5,0-0.7c-6.6-9.5-13.2-18.9-19.8-28.4C128.1,19.5,128,19.4,127.9,19.2z"/>
	<path class="st0" d="M186.2,19.2c3.2,0.1,6.4-0.1,9.5,0.1c2.7,0.2,4.9,1.5,6.5,3.7c4,5.6,7.9,11.2,11.8,16.9
		c8.7,12.4,17.3,24.8,26,37.2c0.1,0.1,0.2,0.3,0.3,0.5c-0.2,0-0.3,0-0.4,0c-4.2,0-8.4,0-12.6,0c-0.3,0-0.5-0.1-0.6-0.3
		c-4.4-6.3-8.8-12.5-13.1-18.8c-0.1-0.1-0.2-0.2-0.3-0.4c-0.6,0.9-1.2,1.7-1.7,2.5c-3.9,5.6-7.8,11.2-11.7,16.8
		c-0.1,0.2-0.2,0.3-0.5,0.3c-4.3,0-8.6,0-12.9,0c0,0-0.1,0-0.2,0c0.3-0.5,0.6-0.9,0.9-1.4c6.4-9.1,12.8-18.3,19.1-27.4
		c0.2-0.3,0.2-0.5,0-0.7c-6.6-9.5-13.2-18.9-19.8-28.4C186.4,19.5,186.3,19.4,186.2,19.2z"/>
	<path class="st0" d="M314.6,22.5c2.1-1.5,4.3-2.5,6.7-3c1.6-0.3,3.3-0.4,4.8,0.4c2.1,1.1,3.2,2.9,3.3,5.2c0.1,1.6,0,3.3,0,4.9
		c0,0.3-0.1,0.4-0.4,0.4c-1.8,0.3-3.7,0.3-5.6,0.7c-3.1,0.6-5.6,2.1-7.2,4.9c-0.9,1.6-1.3,3.4-1.5,5.3c-0.1,1.2-0.1,2.5-0.1,3.7
		c0,8.6,0,17.3,0,25.9c0,3.1-2.5,5.8-5.6,5.9c-2,0.1-3.9,0-5.9,0c-0.2,0-0.3-0.1-0.3-0.3c0-0.1,0-0.1,0-0.2c0-16.8,0-33.5,0-50.3
		c0-2.9,1.7-5.3,4.4-6.1c0.5-0.2,1.1-0.2,1.6-0.2c1.8,0,3.6,0,5.4,0c0.3,0,0.4,0.1,0.4,0.4C314.6,20.8,314.6,21.6,314.6,22.5z"/>
	<path class="st0" d="M123.4,47.9c0,9.4,0,18.8,0,28.3c0,0.4-0.1,0.5-0.5,0.5c-3.6,0-7.3,0-10.9,0c-0.3,0-0.4-0.1-0.4-0.4
		c0-16.9,0-33.8,0-50.7c0-3.6,2.7-6.3,6.3-6.3c1.7,0,3.3,0,5,0c0.4,0,0.5,0.1,0.5,0.5C123.4,29.1,123.4,38.5,123.4,47.9z"/>
	<path class="st0" d="M163,46.4c-0.9-1.4-1.9-2.7-2.8-4c-0.6-0.9-1.2-1.7-1.8-2.6c-1.3-1.9-1.3-4.1,0-6c2.5-3.6,5-7.2,7.5-10.8
		c1.8-2.6,4.3-3.8,7.5-3.9c2.7,0,5.4,0,8.1,0c0.1,0,0.3,0,0.5,0C175.7,28.3,169.4,37.3,163,46.4z"/>
	<path class="st0" d="M240.4,19.2c-6.4,9.1-12.7,18.1-19,27.2c-0.6-0.9-1.3-1.8-1.9-2.7c-0.9-1.3-1.8-2.6-2.7-3.9
		c-1.3-1.9-1.3-4.1,0-6c2.5-3.6,5-7.2,7.5-10.8c1.8-2.6,4.4-3.9,7.5-3.9c2.7,0,5.4,0,8.1,0C240,19.2,240.1,19.2,240.4,19.2z"/>
	<path class="st0" d="M345.6,64.5c0,2.3,0,4.7,0,7c0,0.2,0,0.4,0,0.5c-0.2,2.8-2.4,4.9-5.2,4.9c-2.1,0-4.1,0-6.2,0
		c-0.3,0-0.4-0.1-0.4-0.4c0-2.4,0-4.7,0-7.1c0-2.7,2.3-4.9,5-5C341.1,64.5,343.3,64.5,345.6,64.5z"/>
</g>
</svg>
